<svg width="261" height="199" viewBox="0 0 261 199" fill="none" xmlns="http://www.w3.org/2000/svg">
<path fill-rule="evenodd" clip-rule="evenodd" d="M44.0142 105.642C41.8989 104.832 39.8195 103.846 37.7946 102.679C35.8236 101.544 33.9749 100.277 32.2528 98.898L45.4808 75.9385L19.8148 82.8406C17.9473 78.6969 16.7345 74.282 16.2223 69.7674L41.9599 62.846L18.7557 49.4771C19.5766 47.3108 20.5812 45.1815 21.775 43.1095C22.8834 41.1856 24.1162 39.3781 25.4575 37.6913L48.7281 51.0985L41.7304 25.0772C45.8792 23.2221 50.2974 22.022 54.8139 21.5229L61.8206 47.5777L75.294 24.1921C77.3511 24.9899 79.3737 25.9543 81.3447 27.0899C83.3696 28.2565 85.2655 29.5609 87.0275 30.9845L73.5681 54.3458L99.5193 47.367C101.341 51.5296 102.506 55.9573 102.968 60.4788L77.0889 67.4384L100.205 80.7562C99.418 82.7626 98.4727 84.7357 97.3643 86.6596C96.1705 88.7316 94.8323 90.6687 93.3699 92.4654L70.3207 79.1858L77.2043 104.783C73.0467 106.616 68.6224 107.794 64.1028 108.27L57.2282 82.7067L44.0142 105.642Z" fill="#B9D4F4"/>
<circle cx="59.6743" cy="65.2737" r="37.9979" transform="rotate(29.948 59.6743 65.2737)" fill="#B9D4F4"/>
<circle cx="59.6456" cy="65.1668" r="16.497" transform="rotate(29.948 59.6456 65.1668)" fill="white"/>
<rect x="57.7217" y="58.0129" width="10.4768" height="10.4768" transform="rotate(29.948 57.7217 58.0129)" fill="#B9D4F4"/>
<path fill-rule="evenodd" clip-rule="evenodd" d="M225.48 131.067C223.833 134.383 221.905 137.614 219.692 140.727C217.538 143.757 215.19 146.569 212.678 149.156L177.377 124.062L184.616 166.898C177.584 169.292 170.211 170.579 162.786 170.71L155.526 127.756L130.165 163.433C126.767 161.761 123.459 159.795 120.273 157.53C117.315 155.427 114.566 153.14 112.03 150.696L137.464 114.916L94.0353 122.256C91.6618 115.217 90.3961 107.841 90.2864 100.415L133.771 93.0652L97.8142 67.5057C99.4322 64.2826 101.316 61.1414 103.47 58.111C105.683 54.9977 108.1 52.1155 110.691 49.4699L146.61 75.0029L139.29 31.6915C146.346 29.3753 153.732 28.168 161.161 28.1181L168.461 71.3099L193.725 35.7685C196.868 37.3603 199.931 39.2052 202.889 41.3079C206.075 43.5727 209.019 46.0512 211.715 48.7102L186.523 84.1493L229.243 76.9291C231.58 83.9792 232.809 91.3612 232.88 98.7894L190.216 106L225.48 131.067Z" fill="#B9D4F4"/>
<circle cx="162.23" cy="99.3093" r="62.1094" transform="rotate(-54.5931 162.23 99.3093)" fill="#B9D4F4"/>
<circle cx="162.052" cy="99.3395" r="26.9652" transform="rotate(-54.5931 162.052 99.3395)" fill="white"/>
<rect x="150.113" y="101.357" width="17.1248" height="17.1248" transform="rotate(-54.5931 150.113 101.357)" fill="#B9D4F4"/>
</svg>
