<svg width="132" height="72" viewBox="0 0 132 72" fill="none" xmlns="http://www.w3.org/2000/svg">
<path d="M6.87097 70.742V21.9732L10.6613 18.1829H19.2527V66.9517L15.4624 70.742H6.87097Z" fill="white"/>
<path d="M6.87097 21.9732V70.742H15.4624M6.87097 21.9732H15.4624M6.87097 21.9732L10.6613 18.1829L19.2527 18.1829M15.4624 70.742V21.9732M15.4624 70.742L19.2527 66.9517V18.1829M15.4624 21.9732L19.2527 18.1829" stroke="#B9D4F4" stroke-width="2"/>
<path d="M96.3226 70.742V21.9732L100.113 18.1829H108.704V66.9517L104.914 70.742H96.3226Z" fill="white"/>
<path d="M96.3226 21.9732V70.742H104.914M96.3226 21.9732H104.914M96.3226 21.9732L100.113 18.1829L108.704 18.1829M104.914 70.742V21.9732M104.914 70.742L108.704 66.9517V18.1829M104.914 21.9732L108.704 18.1829" stroke="#B9D4F4" stroke-width="2"/>
<path d="M113 59.1182V10.3494L116.79 6.55908H125.382V55.3279L121.591 59.1182H113Z" fill="white"/>
<path d="M113 10.3494V59.1182H121.591M113 10.3494H121.591M113 10.3494L116.79 6.55908L125.382 6.55908M121.591 59.1182V10.3494M121.591 59.1182L125.382 55.3279V6.55908M121.591 10.3494L125.382 6.55908" stroke="#B9D4F4" stroke-width="2"/>
<path d="M22.5377 59.1182V10.3494L26.328 6.55908H34.9194V55.3279L31.1291 59.1182H22.5377Z" fill="white"/>
<path d="M22.5377 10.3494V59.1182H31.1291M22.5377 10.3494H31.1291M22.5377 10.3494L26.328 6.55908L34.9194 6.55908M31.1291 59.1182V10.3494M31.1291 59.1182L34.9194 55.3279V6.55908M31.1291 10.3494L34.9194 6.55908" stroke="#B9D4F4" stroke-width="2"/>
<path d="M1.81726 28.0376V17.9301L18.7474 1H130.183V11.1075L113.253 28.0376H1.81726Z" fill="white"/>
<path d="M1.81726 17.9301V28.0376H113.253M1.81726 17.9301H113.253M1.81726 17.9301L18.7474 1H130.183M113.253 28.0376V17.9301M113.253 28.0376L130.183 11.1075V1M113.253 17.9301L130.183 1" stroke="#B9D4F4" stroke-width="2"/>
</svg>
